<svg width="130" height="52" viewBox="0 0 130 52" fill="none" xmlns="http://www.w3.org/2000/svg">
<path fill-rule="evenodd" clip-rule="evenodd" d="M24.1673 46.0911V38.7337C17.0131 37.7883 11.5166 32.1471 11.5166 25.3278V5.90942H5.13126C4.25515 5.90942 3.54492 6.61606 3.54492 7.48774V25.3278C3.54492 36.186 12.6007 45.1075 24.1673 46.0911ZM24.1673 32.3357C21.3983 31.6313 19.2405 29.586 18.5739 27.0094C18.4342 26.4713 18.3601 25.5783 18.3601 24.7238V7.48774C18.3601 6.61606 17.6499 5.90942 16.7738 5.90942H13.8436V25.0088C13.8436 25.6318 13.8984 26.5606 14.0011 27.1561C14.8437 31.9549 18.9507 35.7521 24.1673 36.5754V32.3357Z" fill="#66CEF6"/>
<path fill-rule="evenodd" clip-rule="evenodd" d="M27.3398 46.0915V38.734C34.4941 37.7886 39.9906 32.1473 39.9906 25.3281V5.90971L46.3759 5.90967C47.252 5.90966 47.9622 6.6163 47.9622 7.48799V25.3281C47.9622 36.1864 38.9064 45.1077 27.3398 46.0915ZM27.3398 32.3361C30.1088 31.6317 32.2667 29.5862 32.9333 27.0098C33.0729 26.4715 33.1469 25.5785 33.1469 24.724V7.48807C33.1469 6.61639 33.8573 5.90975 34.7333 5.90974L37.6636 5.90972V18.3193V25.0091C37.6636 25.632 37.6087 26.5609 37.506 27.1564C36.6634 31.9551 32.5563 35.7525 27.3398 36.5758V32.3361Z" fill="#0058A6"/>
<path d="M77.8616 29.7299V15.8006H81.2802V29.5551C81.2802 31.7698 80.5965 33.5085 79.2291 34.7712C77.8996 36.0146 76.0669 36.6363 73.7309 36.6363C71.3949 36.6363 69.5527 36.0146 68.2043 34.7712C66.8558 33.5085 66.1816 31.7698 66.1816 29.5551V15.8006H69.6002V29.7299C69.6002 30.8178 69.961 31.7115 70.6827 32.4108C71.4234 33.0908 72.4395 33.4308 73.7309 33.4308C75.0224 33.4308 76.0289 33.0908 76.7506 32.4108C77.4913 31.7115 77.8616 30.8178 77.8616 29.7299ZM89.5538 36.1991H86.1353V15.8006H89.2689L97.8153 29.7008V15.8006H101.234V36.1991H98.1001L89.5538 22.299V36.1991ZM109.779 36.1991H106.361V15.8006H109.779V36.1991ZM126.581 29.4676V22.5321C126.581 21.3471 126.192 20.3952 125.413 19.6764C124.635 18.9381 123.552 18.569 122.166 18.569C120.779 18.569 119.697 18.9381 118.918 19.6764C118.139 20.3952 117.75 21.3471 117.75 22.5321V29.4676C117.75 30.6527 118.139 31.6143 118.918 32.3526C119.697 33.0714 120.779 33.4308 122.166 33.4308C123.552 33.4308 124.635 33.0714 125.413 32.3526C126.192 31.6143 126.581 30.6527 126.581 29.4676ZM114.332 29.2928V22.707C114.332 20.434 115.034 18.6467 116.44 17.3451C117.845 16.024 119.754 15.3635 122.166 15.3635C124.578 15.3635 126.486 16.024 127.892 17.3451C129.297 18.6467 130 20.434 130 22.707V29.2928C130 31.5658 129.297 33.3628 127.892 34.6838C126.486 35.9854 124.578 36.6363 122.166 36.6363C119.754 36.6363 117.845 35.9854 116.44 34.6838C115.034 33.3628 114.332 31.5658 114.332 29.2928Z" fill="#0058A6"/>
</svg>
