<svg width="15" height="15" viewBox="0 0 15 15" fill="none" xmlns="http://www.w3.org/2000/svg">
<path d="M5.78033 7.71967C5.48744 7.42678 5.01256 7.42678 4.71967 7.71967C4.42678 8.01256 4.42678 8.48744 4.71967 8.78033L6.96967 11.0303C7.26256 11.3232 7.73744 11.3232 8.03033 11.0303L10.2803 8.78033C10.5732 8.48744 10.5732 8.01256 10.2803 7.71967C9.98744 7.42678 9.51256 7.42678 9.21967 7.71967L8.25 8.68934L8.25 4.5H12C12.8284 4.5 13.5 5.17157 13.5 6V11.25C13.5 12.0784 12.8284 12.75 12 12.75H3C2.17157 12.75 1.5 12.0784 1.5 11.25V6C1.5 5.17157 2.17157 4.5 3 4.5H6.75L6.75 8.68934L5.78033 7.71967Z" fill="#9DAAB8"/>
<path d="M6.75 3C6.75 2.58579 7.08579 2.25 7.5 2.25C7.91421 2.25 8.25 2.58579 8.25 3L8.25 4.5H6.75L6.75 3Z" fill="#9DAAB8"/>
</svg>
