<svg width="15" height="15" viewBox="0 0 15 15" fill="none" xmlns="http://www.w3.org/2000/svg">
<path fill-rule="evenodd" clip-rule="evenodd" d="M6.75 1.5C6.46592 1.5 6.20622 1.6605 6.07918 1.91459L5.53648 3H3C2.58579 3 2.25 3.33579 2.25 3.75C2.25 4.16421 2.58579 4.5 3 4.5L3 12C3 12.8284 3.67157 13.5 4.5 13.5H10.5C11.3284 13.5 12 12.8284 12 12V4.5C12.4142 4.5 12.75 4.16421 12.75 3.75C12.75 3.33579 12.4142 3 12 3H9.46353L8.92082 1.91459C8.79378 1.6605 8.53408 1.5 8.25 1.5H6.75ZM5.25 6C5.25 5.58579 5.58579 5.25 6 5.25C6.41421 5.25 6.75 5.58579 6.75 6V10.5C6.75 10.9142 6.41421 11.25 6 11.25C5.58579 11.25 5.25 10.9142 5.25 10.5V6ZM9 5.25C8.58579 5.25 8.25 5.58579 8.25 6V10.5C8.25 10.9142 8.58579 11.25 9 11.25C9.41421 11.25 9.75 10.9142 9.75 10.5V6C9.75 5.58579 9.41421 5.25 9 5.25Z" fill="#D3DBDF"/>
</svg>
